<svg xmlns="http://www.w3.org/2000/svg" viewBox="0 0 820 400" width="820" height="400" style="background-color: white;">
  
  <path fill="#0b2c58" d="
    M 56.6,139.6 L 96.2,139.6 L 123.9,256.2 L 151.4,139.6 L 191.2,139.6 L 218.7,256.2 L 246.5,139.6 L 285.8,139.6 L 248.0,300.0 L 200.3,300.0 L 171.2,178.1 L 142.4,300.0 L 94.7,300.0 L 56.6,139.6 Z 
    M 423.3,239.5 L 423.3,250.5 L 333.4,250.5 Q 334.7,264.0 343.1,270.8 Q 351.5,277.6 366.5,277.6 Q 378.7,277.6 391.4,273.9 Q 404.1,270.3 417.6,263.0 L 417.6,292.7 Q 403.9,297.8 390.3,300.5 Q 376.6,303.1 363.0,303.1 Q 330.3,303.1 312.2,286.5 Q 294.1,269.9 294.1,239.9 Q 294.1,210.5 311.9,193.7 Q 329.7,176.8 360.9,176.8 Q 389.2,176.8 406.2,193.9 Q 423.3,210.9 423.3,239.5 Z M 383.7,226.7 Q 383.7,215.8 377.3,209.1 Q 370.9,202.3 360.6,202.3 Q 349.5,202.3 342.5,208.6 Q 335.5,214.9 333.8,226.7 L 383.7,226.7 Z 
    M 452.4,132.8 L 490.8,132.8 L 490.8,300.0 L 452.4,300.0 L 452.4,132.8 Z 
    M 527.8,132.8 L 566.2,132.8 L 566.2,300.0 L 527.8,300.0 L 527.8,132.8 Z 
    M 604.9,139.6 L 716.5,139.6 L 716.5,170.9 L 646.3,170.9 L 646.3,200.7 L 712.4,200.7 L 712.4,232.0 L 646.3,232.0 L 646.3,300.0 L 604.9,300.0 L 604.9,139.6 Z 
    M 726,170 L 764,170 L 764,300 L 726,300 Z" />

  <path stroke="#00f2ff" stroke-width="1" fill="none" opacity="0.6" d="
    M 537.9,198.1 L 541.7,209.4 M 534.3,204.6 L 537.9,198.1 M 478.3,237.3 L 454.8,258.4 M 252.8,179.8 L 260.6,192.7 
    M 118.4,275.9 L 133.9,254.6 M 478.3,237.3 L 486.3,274.2 M 260.6,192.7 L 255.5,187.1 M 686.5,208.5 L 660.0,212.1 
    M 82.5,161.9 L 78.5,155.9 M 263.0,202.2 L 255.5,187.1 M 630.1,214.6 L 660.0,212.1 M 562.4,235.2 L 529.0,218.5 
    M 299.7,236.4 L 320.7,238.5 M 478.3,237.3 L 464.7,204.9 M 349.3,207.2 L 349.0,237.4 M 74.1,143.3 L 78.5,155.9 
    M 86.0,194.1 L 67.0,161.8 M 133.9,254.6 L 108.9,234.0 M 676.4,140.7 L 680.3,169.3 M 86.0,194.1 L 75.2,160.0 
    M 78.5,155.9 L 67.0,161.8 M 90.7,229.1 L 108.9,234.0 M 135.4,222.9 L 146.3,230.8 M 253.9,162.6 L 274.5,171.4 
    M 78.5,155.9 L 75.2,160.0 M 486.3,274.2 L 480.5,276.0 M 469.1,259.4 L 454.8,258.4 M 469.1,259.4 L 486.3,274.2 
    M 537.9,198.1 L 541.4,223.0 M 560.3,179.7 L 560.7,170.5 M 615.7,243.4 L 645.8,238.0 M 67.0,161.8 L 75.2,160.0 
    M 697.3,213.6 L 673.0,214.8 M 560.7,170.5 L 537.9,198.1 M 529.0,218.5 L 537.9,198.1 M 254.5,265.0 L 256.1,230.0 
    M 612.6,173.3 L 625.8,145.5 M 82.5,161.9 L 67.0,161.8 M 470.8,298.8 L 486.3,274.2 M 125.5,288.6 L 133.9,254.6 
    M 545.7,167.7 L 560.3,179.7 M 562.4,235.2 L 541.7,209.4 M 620.8,270.8 L 647.1,293.1 M 337.3,197.3 L 312.9,223.2 
    M 396.6,218.4 L 394.8,238.9 M 560.7,170.5 L 549.3,203.2 M 620.8,270.8 L 617.1,295.9 M 634.7,193.7 L 616.6,228.5 
    M 239.9,260.8 L 256.1,230.0 M 380.6,301.7 L 401.9,288.3 M 560.3,179.7 L 549.3,203.2 M 480.5,276.0 L 454.8,258.4 
    M 133.9,254.6 L 129.4,273.9 M 108.9,234.0 L 118.0,255.1 M 630.1,214.6 L 645.8,238.0 M 74.1,143.3 L 67.0,161.8 
    M 74.1,143.3 L 75.2,160.0 M 135.4,222.9 L 151.4,206.1 M 253.9,162.6 L 260.6,192.7 M 545.7,167.7 L 560.7,170.5 
    M 469.1,259.4 L 470.8,298.8 M 660.0,212.1 L 645.8,238.0 M 146.3,230.8 L 108.9,234.0 M 478.3,237.3 L 480.5,276.0 
    M 180.6,182.2 L 163.1,177.4 M 549.3,203.2 L 541.4,223.0 M 90.7,229.1 L 86.0,194.1 M 151.4,206.1 L 146.3,230.8 
    M 304.5,276.6 L 309.1,267.9 M 680.3,169.3 L 690.4,157.2 M 545.7,167.7 L 549.3,203.2 M 474.5,271.2 L 454.8,258.4 
    M 135.4,222.9 L 108.9,234.0 M 622.6,210.4 L 634.7,193.7 M 252.8,179.8 L 255.5,187.1 M 686.5,208.5 L 697.3,213.6 
    M 534.3,204.6 L 541.7,209.4 M 146.3,230.8 L 118.0,255.1 M 396.6,218.4 L 415.6,218.5 M 349.0,237.4 L 312.9,223.2 
    M 254.5,265.0 L 230.6,246.1 M 615.7,243.4 L 616.6,228.5 M 322.1,197.0 L 349.3,207.2 M 274.5,171.4 L 255.5,187.1 
    M 660.0,212.1 L 697.3,213.6 M 133.9,254.6 L 118.0,255.1 M 320.7,238.5 L 312.9,223.2 M 486.3,274.2 L 474.5,271.2 
    M 469.1,259.4 L 478.3,237.3 M 686.5,208.5 L 680.3,169.3 M 469.1,259.4 L 480.5,276.0 M 135.4,222.9 L 118.0,255.1 
    M 90.7,229.1 L 118.0,255.1 M 560.3,179.7 L 537.9,198.1 M 398.1,193.6 L 415.6,218.5 M 260.6,192.7 L 274.5,171.4 
    M 82.5,161.9 L 75.2,160.0 M 549.3,203.2 L 537.9,198.1 M 263.0,202.2 L 274.5,171.4 M 230.6,246.1 L 256.1,230.0 
    M 260.6,192.7 L 256.1,230.0 M 529.0,218.5 L 534.3,204.6 M 630.1,214.6 L 616.6,228.5 M 470.8,298.8 L 480.5,276.0 
    M 263.0,202.2 L 256.1,230.0 M 253.9,162.6 L 252.8,179.8 M 322.1,197.0 L 337.3,197.3 M 396.6,218.4 L 398.1,193.6 
    M 464.7,204.9 L 475.3,189.0 M 151.4,206.1 L 163.1,177.4 M 612.6,173.3 L 622.6,210.4 M 612.6,173.3 L 634.7,193.7 
    M 180.6,182.2 L 151.4,206.1 M 562.4,235.2 L 549.3,203.2 M 534.3,204.6 L 541.4,223.0 M 541.7,209.4 L 541.4,223.0 
    M 82.5,161.9 L 86.0,194.1 M 322.1,197.0 L 312.9,223.2 M 394.8,238.9 L 415.6,218.5 M 529.0,218.5 L 541.7,209.4 
    M 647.1,293.1 L 617.1,295.9 M 545.7,167.7 L 537.9,198.1 M 320.7,238.5 L 309.1,267.9 M 630.1,214.6 L 615.7,243.4 
    M 478.3,237.3 L 474.5,271.2 M 562.4,235.2 L 541.4,223.0 M 86.0,194.1 L 78.5,155.9 M 263.0,202.2 L 260.6,192.7 
    M 253.9,162.6 L 255.5,187.1 M 620.8,270.8 L 615.7,243.4 M 645.8,238.0 L 616.6,228.5 M 474.5,271.2 L 480.5,276.0 
    M 676.4,140.7 L 690.4,157.2 M 349.0,237.4 L 320.7,238.5 M 463.6,138.0 L 486.0,148.1 M 239.9,260.8 L 230.6,246.1 
    M 622.6,210.4 L 645.8,238.0 M 299.7,236.4 L 312.9,223.2 M 529.0,218.5 L 541.4,223.0 M 135.4,222.9 L 133.9,254.6 
    M 558.2,245.9 L 541.4,223.0 M 118.4,275.9 L 129.4,273.9 M 469.1,259.4 L 474.5,271.2 M 560.3,179.7 L 534.3,204.6 
    M 254.5,265.0 L 239.9,260.8 M 615.7,243.4 L 622.6,210.4 M 82.5,161.9 L 74.1,143.3 M 549.3,203.2 L 534.3,204.6 
    M 129.4,273.9 L 118.0,255.1 M 486.3,274.2 L 454.8,258.4 M 470.8,298.8 L 474.5,271.2 M 620.8,270.8 L 615.2,297.9 
    M 133.9,254.6 L 146.3,230.8 M 252.8,179.8 L 274.5,171.4 M 645.8,238.0 L 673.0,214.8 M 630.1,214.6 L 622.6,210.4 
    M 560.3,179.7 L 541.7,209.4 M 263.0,202.2 L 252.8,179.8 M 349.3,207.2 L 337.3,197.3 M 630.1,214.6 L 634.7,193.7 
    M 615.2,297.9 L 647.1,293.1 M 615.2,297.9 L 617.1,295.9 M 549.3,203.2 L 541.7,209.4 M 125.5,288.6 L 118.0,255.1 
    M 299.7,236.4 L 309.1,267.9 M 118.4,275.9 L 125.5,288.6 M 545.7,167.7 L 534.3,204.6 M 686.5,208.5 L 673.0,214.8 
    M 660.0,212.1 L 622.6,210.4 M 660.0,212.1 L 634.7,193.7 M 607.1,164.6 L 625.8,145.5 M 612.6,173.3 L 607.1,164.6 
    M 562.4,235.2 L 558.2,245.9 M 349.3,207.2 L 312.9,223.2 M 529.0,218.5 L 549.3,203.2 M 125.5,288.6 L 129.4,273.9 
    M 118.4,275.9 L 118.0,255.1 M 660.0,212.1 L 673.0,214.8 M 622.6,210.4 L 616.6,228.5
    M 735,190 L 755,210 M 755,210 L 730,240 M 730,240 L 760,260 M 760,260 L 745,290 M 755,210 L 760,260 M 735,190 L 730,240" />

  <path fill="#00f2ff" opacity="0.8" d="
    M 562.4,232.7 A 2.5,2.5 0 1,0 562.4,237.7 A 2.5,2.5 0 1,0 562.4,232.7 M 469.1,256.9 A 2.5,2.5 0 1,0 469.1,261.9 A 2.5,2.5 0 1,0 469.1,256.9 
    M 90.7,226.6 A 2.5,2.5 0 1,0 90.7,231.6 A 2.5,2.5 0 1,0 90.7,226.6 M 470.8,296.3 A 2.5,2.5 0 1,0 470.8,301.3 A 2.5,2.5 0 1,0 470.8,296.3 
    M 545.7,165.2 A 2.5,2.5 0 1,0 545.7,170.2 A 2.5,2.5 0 1,0 545.7,165.2 M 263.0,199.7 A 2.5,2.5 0 1,0 263.0,204.7 A 2.5,2.5 0 1,0 263.0,199.7 
    M 253.9,160.1 A 2.5,2.5 0 1,0 253.9,165.1 A 2.5,2.5 0 1,0 253.9,160.1 M 478.3,234.8 A 2.5,2.5 0 1,0 478.3,239.8 A 2.5,2.5 0 1,0 478.3,234.8 
    M 254.5,262.5 A 2.5,2.5 0 1,0 254.5,267.5 A 2.5,2.5 0 1,0 254.5,262.5 M 189.8,236.1 A 2.5,2.5 0 1,0 189.8,241.1 A 2.5,2.5 0 1,0 189.8,236.1 
    M 464.7,202.4 A 2.5,2.5 0 1,0 464.7,207.4 A 2.5,2.5 0 1,0 464.7,202.4 M 82.5,159.4 A 2.5,2.5 0 1,0 82.5,164.4 A 2.5,2.5 0 1,0 82.5,159.4 
    M 475.3,186.5 A 2.5,2.5 0 1,0 475.3,191.5 A 2.5,2.5 0 1,0 475.3,186.5 M 118.4,273.4 A 2.5,2.5 0 1,0 118.4,278.4 A 2.5,2.5 0 1,0 118.4,273.4 
    M 529.0,216.0 A 2.5,2.5 0 1,0 529.0,221.0 A 2.5,2.5 0 1,0 529.0,216.0 M 135.4,220.4 A 2.5,2.5 0 1,0 135.4,225.4 A 2.5,2.5 0 1,0 135.4,220.4 
    M 396.6,215.9 A 2.5,2.5 0 1,0 396.6,220.9 A 2.5,2.5 0 1,0 396.6,215.9 M 74.1,140.8 A 2.5,2.5 0 1,0 74.1,145.8 A 2.5,2.5 0 1,0 74.1,140.8 
    M 686.5,206.0 A 2.5,2.5 0 1,0 686.5,211.0 A 2.5,2.5 0 1,0 686.5,206.0 M 676.4,138.2 A 2.5,2.5 0 1,0 676.4,143.2 A 2.5,2.5 0 1,0 676.4,138.2 
    M 322.1,194.5 A 2.5,2.5 0 1,0 322.1,199.5 A 2.5,2.5 0 1,0 322.1,194.5 M 239.9,258.3 A 2.5,2.5 0 1,0 239.9,263.3 A 2.5,2.5 0 1,0 239.9,258.3 
    M 630.1,212.1 A 2.5,2.5 0 1,0 630.1,217.1 A 2.5,2.5 0 1,0 630.1,212.1 M 299.7,233.9 A 2.5,2.5 0 1,0 299.7,238.9 A 2.5,2.5 0 1,0 299.7,233.9 
    M 620.8,268.3 A 2.5,2.5 0 1,0 620.8,273.3 A 2.5,2.5 0 1,0 620.8,268.3 M 560.3,177.2 A 2.5,2.5 0 1,0 560.3,182.2 A 2.5,2.5 0 1,0 560.3,177.2 
    M 486.3,271.7 A 2.5,2.5 0 1,0 486.3,276.7 A 2.5,2.5 0 1,0 486.3,271.7 M 560.7,168.0 A 2.5,2.5 0 1,0 560.7,173.0 A 2.5,2.5 0 1,0 560.7,168.0 
    M 380.6,299.2 A 2.5,2.5 0 1,0 380.6,304.2 A 2.5,2.5 0 1,0 380.6,299.2 M 549.3,200.7 A 2.5,2.5 0 1,0 549.3,205.7 A 2.5,2.5 0 1,0 549.3,200.7 
    M 349.3,204.7 A 2.5,2.5 0 1,0 349.3,209.7 A 2.5,2.5 0 1,0 349.3,204.7 M 125.5,286.1 A 2.5,2.5 0 1,0 125.5,291.1 A 2.5,2.5 0 1,0 125.5,286.1 
    M 337.3,194.8 A 2.5,2.5 0 1,0 337.3,199.8 A 2.5,2.5 0 1,0 337.3,194.8 M 252.8,177.3 A 2.5,2.5 0 1,0 252.8,182.3 A 2.5,2.5 0 1,0 252.8,177.3 
    M 615.7,240.9 A 2.5,2.5 0 1,0 615.7,245.9 A 2.5,2.5 0 1,0 615.7,240.9 M 660.0,209.6 A 2.5,2.5 0 1,0 660.0,214.6 A 2.5,2.5 0 1,0 660.0,209.6 
    M 612.6,170.8 A 2.5,2.5 0 1,0 612.6,175.8 A 2.5,2.5 0 1,0 612.6,170.8 M 180.6,179.7 A 2.5,2.5 0 1,0 180.6,184.7 A 2.5,2.5 0 1,0 180.6,179.7 
    M 615.2,295.4 A 2.5,2.5 0 1,0 615.2,300.4 A 2.5,2.5 0 1,0 615.2,295.4 M 349.0,234.9 A 2.5,2.5 0 1,0 349.0,239.9 A 2.5,2.5 0 1,0 349.0,234.9 
    M 622.6,207.9 A 2.5,2.5 0 1,0 622.6,212.9 A 2.5,2.5 0 1,0 622.6,207.9 M 205.5,287.9 A 2.5,2.5 0 1,0 205.5,292.9 A 2.5,2.5 0 1,0 205.5,287.9 
    M 133.9,252.1 A 2.5,2.5 0 1,0 133.9,257.1 A 2.5,2.5 0 1,0 133.9,252.1 M 304.5,274.1 A 2.5,2.5 0 1,0 304.5,279.1 A 2.5,2.5 0 1,0 304.5,274.1 
    M 398.1,191.1 A 2.5,2.5 0 1,0 398.1,196.1 A 2.5,2.5 0 1,0 398.1,191.1 M 260.6,190.2 A 2.5,2.5 0 1,0 260.6,195.2 A 2.5,2.5 0 1,0 260.6,190.2 
    M 401.9,285.8 A 2.5,2.5 0 1,0 401.9,290.8 A 2.5,2.5 0 1,0 401.9,285.8 M 86.0,191.6 A 2.5,2.5 0 1,0 86.0,196.6 A 2.5,2.5 0 1,0 86.0,191.6 
    M 151.4,203.6 A 2.5,2.5 0 1,0 151.4,208.6 A 2.5,2.5 0 1,0 151.4,203.6 M 634.7,191.2 A 2.5,2.5 0 1,0 634.7,196.2 A 2.5,2.5 0 1,0 634.7,191.2 
    M 274.5,168.9 A 2.5,2.5 0 1,0 274.5,173.9 A 2.5,2.5 0 1,0 274.5,168.9 M 78.5,153.4 A 2.5,2.5 0 1,0 78.5,158.4 A 2.5,2.5 0 1,0 78.5,153.4 
    M 320.7,236.0 A 2.5,2.5 0 1,0 320.7,241.0 A 2.5,2.5 0 1,0 320.7,236.0 M 146.3,228.3 A 2.5,2.5 0 1,0 146.3,233.3 A 2.5,2.5 0 1,0 146.3,228.3 
    M 129.4,271.4 A 2.5,2.5 0 1,0 129.4,276.4 A 2.5,2.5 0 1,0 129.4,271.4 M 697.3,211.1 A 2.5,2.5 0 1,0 697.3,216.1 A 2.5,2.5 0 1,0 697.3,211.1 
    M 230.6,243.6 A 2.5,2.5 0 1,0 230.6,248.6 A 2.5,2.5 0 1,0 230.6,243.6 M 680.3,166.8 A 2.5,2.5 0 1,0 680.3,171.8 A 2.5,2.5 0 1,0 680.3,166.8 
    M 558.2,243.4 A 2.5,2.5 0 1,0 558.2,248.4 A 2.5,2.5 0 1,0 558.2,243.4 M 108.9,231.5 A 2.5,2.5 0 1,0 108.9,236.5 A 2.5,2.5 0 1,0 108.9,231.5 
    M 163.1,174.9 A 2.5,2.5 0 1,0 163.1,179.9 A 2.5,2.5 0 1,0 163.1,174.9 M 474.5,268.7 A 2.5,2.5 0 1,0 474.5,273.7 A 2.5,2.5 0 1,0 474.5,268.7 
    M 534.3,202.1 A 2.5,2.5 0 1,0 534.3,207.1 A 2.5,2.5 0 1,0 534.3,202.1 M 394.8,236.4 A 2.5,2.5 0 1,0 394.8,241.4 A 2.5,2.5 0 1,0 394.8,236.4 
    M 67.0,159.3 A 2.5,2.5 0 1,0 67.0,164.3 A 2.5,2.5 0 1,0 67.0,159.3 M 690.4,154.7 A 2.5,2.5 0 1,0 690.4,159.7 A 2.5,2.5 0 1,0 690.4,154.7 
    M 309.1,265.4 A 2.5,2.5 0 1,0 309.1,270.4 A 2.5,2.5 0 1,0 309.1,265.4 M 647.1,290.6 A 2.5,2.5 0 1,0 647.1,295.6 A 2.5,2.5 0 1,0 647.1,290.6 
    M 256.1,227.5 A 2.5,2.5 0 1,0 256.1,232.5 A 2.5,2.5 0 1,0 256.1,227.5 M 645.8,235.5 A 2.5,2.5 0 1,0 645.8,240.5 A 2.5,2.5 0 1,0 645.8,235.5 
    M 118.0,252.6 A 2.5,2.5 0 1,0 118.0,257.6 A 2.5,2.5 0 1,0 118.0,252.6 M 480.5,273.5 A 2.5,2.5 0 1,0 480.5,278.5 A 2.5,2.5 0 1,0 480.5,273.5 
    M 537.9,195.6 A 2.5,2.5 0 1,0 537.9,200.6 A 2.5,2.5 0 1,0 537.9,195.6 M 541.7,206.9 A 2.5,2.5 0 1,0 541.7,211.9 A 2.5,2.5 0 1,0 541.7,206.9 
    M 255.5,184.6 A 2.5,2.5 0 1,0 255.5,189.6 A 2.5,2.5 0 1,0 255.5,184.6 M 616.6,226.0 A 2.5,2.5 0 1,0 616.6,231.0 A 2.5,2.5 0 1,0 616.6,226.0 
    M 617.1,293.4 A 2.5,2.5 0 1,0 617.1,298.4 A 2.5,2.5 0 1,0 617.1,293.4 M 541.4,220.5 A 2.5,2.5 0 1,0 541.4,225.5 A 2.5,2.5 0 1,0 541.4,220.5 
    M 607.1,162.1 A 2.5,2.5 0 1,0 607.1,167.1 A 2.5,2.5 0 1,0 607.1,162.1 M 673.0,212.3 A 2.5,2.5 0 1,0 673.0,217.3 A 2.5,2.5 0 1,0 673.0,212.3 
    M 312.9,220.7 A 2.5,2.5 0 1,0 312.9,225.7 A 2.5,2.5 0 1,0 312.9,220.7 M 454.8,255.9 A 2.5,2.5 0 1,0 454.8,260.9 A 2.5,2.5 0 1,0 454.8,255.9 
    M 75.2,157.5 A 2.5,2.5 0 1,0 75.2,162.5 A 2.5,2.5 0 1,0 75.2,157.5 M 463.6,135.5 A 2.5,2.5 0 1,0 463.6,140.5 A 2.5,2.5 0 1,0 463.6,135.5 
    M 625.8,143.0 A 2.5,2.5 0 1,0 625.8,148.0 A 2.5,2.5 0 1,0 625.8,143.0 M 415.6,216.0 A 2.5,2.5 0 1,0 415.6,221.0 A 2.5,2.5 0 1,0 415.6,216.0 
    M 486.0,145.6 A 2.5,2.5 0 1,0 486.0,150.6 A 2.5,2.5 0 1,0 486.0,145.6
    M 735,190 A 2.5,2.5 0 1,0 735,195 A 2.5,2.5 0 1,0 735,190
    M 755,210 A 2.5,2.5 0 1,0 755,215 A 2.5,2.5 0 1,0 755,210
    M 730,240 A 2.5,2.5 0 1,0 730,245 A 2.5,2.5 0 1,0 730,240
    M 760,260 A 2.5,2.5 0 1,0 760,265 A 2.5,2.5 0 1,0 760,260
    M 745,290 A 2.5,2.5 0 1,0 745,295 A 2.5,2.5 0 1,0 745,290" />

  <path fill="#00f2ff" d="M 745,126 A 14,14 0 1,0 745,154 A 14,14 0 1,0 745,126 Z" />
  
  <path stroke="#00f2ff" stroke-width="10" stroke-linecap="round" fill="none" d="
    M 723.8 118.8 A 30.0 30.0 0 0 1 766.2 118.8
    M 706.1 101.1 A 55.0 55.0 0 0 1 783.9 101.1
    M 688.4 83.4 A 80.0 80.0 0 0 1 801.6 83.4" />

</svg>